<svg aria-hidden="true" style="position: absolute; width: 0; height: 0; overflow: hidden;" version="1.1" xmlns="http://www.w3.org/2000/svg" xmlns:xlink="http://www.w3.org/1999/xlink">
<defs>
<symbol id="icon-mobile" viewBox="0 0 21 32">
<path d="M16.935 2.286h-13.299c-1.377 0-2.494 1.152-2.494 2.571v22.286c0 1.42 1.117 2.571 2.494 2.571h13.299c1.377 0 2.494-1.152 2.494-2.571v-22.286c0-1.42-1.117-2.571-2.494-2.571zM12.779 26.238c0 0.52-0.374 0.905-0.831 0.905h-3.371c-0.41 0-0.784-0.386-0.784-0.857s0.374-0.857 0.831-0.857h3.325c0.457 0 0.831 0.386 0.831 0.809zM16.104 22.857h-11.636v-17.143h11.636v17.143z"></path>
</symbol>
<symbol id="icon-twitter" viewBox="0 0 38 32">
<path stroke-linejoin="round" stroke-linecap="round" stroke-miterlimit="4" stroke-width="3.2" d="M36.8 1.616c-1.532 1.081-3.229 1.907-5.024 2.448-0.964-1.108-2.244-1.893-3.669-2.25s-2.924-0.267-4.296 0.257c-1.372 0.524-2.55 1.456-3.375 2.671s-1.256 2.654-1.237 4.122v1.6c-2.812 0.073-5.598-0.551-8.11-1.815s-4.673-3.131-6.29-5.433c0 0-6.4 14.4 8 20.8-3.295 2.237-7.221 3.358-11.2 3.2 14.4 8 32 0 32-18.4-0.001-0.446-0.044-0.89-0.128-1.328 1.633-1.61 2.785-3.644 3.328-5.872v0z"></path>
</symbol>
<symbol id="icon-facebook" viewBox="0 0 19 32">
<path stroke-linejoin="round" stroke-linecap="round" stroke-miterlimit="4" stroke-width="2.9091" d="M17.455 1.455h-4.364c-1.929 0-3.779 0.766-5.143 2.13s-2.13 3.214-2.13 5.143v4.364h-4.364v5.818h4.364v11.636h5.818v-11.636h4.364l1.455-5.818h-5.818v-4.364c0-0.386 0.153-0.756 0.426-1.029s0.643-0.426 1.029-0.426h4.364v-5.818z"></path>
</symbol>
<symbol id="icon-instagram" viewBox="0 0 32 32">
<path stroke-linejoin="round" stroke-linecap="round" stroke-miterlimit="4" stroke-width="2.6667" d="M22.667 2.667h-13.333c-3.682 0-6.667 2.985-6.667 6.667v13.333c0 3.682 2.985 6.667 6.667 6.667h13.333c3.682 0 6.667-2.985 6.667-6.667v-13.333c0-3.682-2.985-6.667-6.667-6.667z"></path>
<path stroke-linejoin="round" stroke-linecap="round" stroke-miterlimit="4" stroke-width="2.6667" d="M21.333 15.16c0.165 1.11-0.025 2.243-0.542 3.239s-1.334 1.803-2.336 2.308c-1.002 0.504-2.138 0.68-3.245 0.502s-2.131-0.701-2.924-1.494-1.316-1.816-1.494-2.924c-0.178-1.107-0.003-2.243 0.502-3.245s1.312-1.82 2.307-2.336c0.996-0.517 2.129-0.706 3.239-0.542 1.132 0.168 2.18 0.695 2.989 1.504s1.337 1.857 1.505 2.989z"></path>
<path stroke-linejoin="round" stroke-linecap="round" stroke-miterlimit="4" stroke-width="2.6667" d="M23.333 8.667h0.013"></path>
</symbol>
<symbol id="icon-star" viewBox="0 0 188 32">
<path d="M32.404 11.487c-0.102-0.296-0.29-0.556-0.541-0.749s-0.553-0.308-0.869-0.333l-9.261-0.725-4.008-8.736c-0.128-0.281-0.335-0.52-0.598-0.688s-0.569-0.257-0.882-0.257c-0.313-0-0.619 0.089-0.882 0.256s-0.471 0.406-0.599 0.687l-4.008 8.737-9.261 0.725c-0.311 0.024-0.609 0.136-0.857 0.323s-0.437 0.439-0.543 0.728c-0.106 0.289-0.125 0.602-0.055 0.902s0.226 0.573 0.449 0.787l6.844 6.57-2.421 10.321c-0.074 0.312-0.050 0.639 0.068 0.938s0.324 0.556 0.592 0.739c0.268 0.182 0.585 0.281 0.911 0.283s0.645-0.092 0.915-0.27l8.845-5.807 8.845 5.807c0.277 0.181 0.603 0.274 0.935 0.267s0.654-0.114 0.922-0.307c0.268-0.193 0.47-0.462 0.579-0.771s0.118-0.644 0.028-0.958l-2.971-10.238 7.369-6.53c0.482-0.429 0.66-1.097 0.452-1.704z"></path>
<path d="M71.393 11.487c-0.102-0.296-0.29-0.556-0.541-0.749s-0.553-0.308-0.87-0.333l-9.261-0.725-4.008-8.736c-0.128-0.281-0.335-0.52-0.598-0.688s-0.569-0.257-0.882-0.257c-0.313-0-0.619 0.089-0.882 0.256s-0.471 0.406-0.599 0.687l-4.008 8.737-9.261 0.725c-0.311 0.024-0.609 0.136-0.857 0.323s-0.436 0.439-0.543 0.728-0.125 0.602-0.055 0.902c0.070 0.3 0.226 0.573 0.449 0.787l6.844 6.57-2.421 10.321c-0.073 0.312-0.050 0.639 0.068 0.938s0.324 0.556 0.591 0.739c0.268 0.182 0.585 0.281 0.911 0.283s0.644-0.092 0.915-0.27l8.846-5.807 8.845 5.807c0.277 0.181 0.603 0.274 0.935 0.267s0.654-0.114 0.922-0.307c0.268-0.193 0.47-0.462 0.579-0.771s0.118-0.644 0.028-0.958l-2.971-10.238 7.369-6.53c0.483-0.429 0.66-1.097 0.452-1.704z"></path>
<path d="M110.376 11.487c-0.102-0.296-0.29-0.556-0.541-0.749s-0.553-0.308-0.87-0.333l-9.261-0.725-4.008-8.736c-0.128-0.281-0.335-0.52-0.598-0.688s-0.569-0.257-0.882-0.257c-0.313-0-0.619 0.089-0.882 0.256s-0.471 0.406-0.599 0.687l-4.008 8.737-9.261 0.725c-0.311 0.024-0.609 0.136-0.857 0.323s-0.437 0.439-0.543 0.728c-0.106 0.289-0.125 0.602-0.055 0.902s0.226 0.573 0.449 0.787l6.844 6.57-2.42 10.321c-0.073 0.312-0.050 0.639 0.068 0.938s0.324 0.556 0.592 0.739c0.268 0.182 0.585 0.281 0.911 0.283s0.644-0.092 0.915-0.27l8.846-5.807 8.845 5.807c0.277 0.181 0.603 0.274 0.935 0.267s0.654-0.114 0.922-0.307c0.268-0.193 0.471-0.462 0.579-0.771s0.118-0.644 0.028-0.958l-2.971-10.238 7.369-6.53c0.482-0.429 0.66-1.097 0.452-1.704z"></path>
<path d="M149.369 11.487c-0.102-0.296-0.29-0.556-0.541-0.749s-0.553-0.308-0.869-0.333l-9.261-0.725-4.008-8.736c-0.128-0.281-0.335-0.52-0.598-0.688s-0.569-0.257-0.882-0.257-0.619 0.089-0.882 0.256c-0.263 0.167-0.471 0.406-0.599 0.687l-4.008 8.737-9.261 0.725c-0.311 0.024-0.609 0.136-0.857 0.323s-0.437 0.439-0.543 0.728c-0.106 0.289-0.125 0.602-0.055 0.902s0.226 0.573 0.449 0.787l6.844 6.57-2.42 10.321c-0.074 0.312-0.050 0.639 0.068 0.938s0.324 0.556 0.592 0.739c0.268 0.182 0.585 0.281 0.911 0.283s0.645-0.092 0.915-0.27l8.845-5.807 8.845 5.807c0.277 0.181 0.603 0.274 0.935 0.267s0.654-0.114 0.922-0.307 0.47-0.462 0.579-0.771c0.109-0.309 0.118-0.644 0.028-0.958l-2.971-10.238 7.369-6.53c0.482-0.429 0.66-1.097 0.452-1.704z"></path>
<path d="M163.291 19.716l-2.42 10.321c-0.075 0.313-0.052 0.64 0.065 0.94s0.323 0.558 0.591 0.74c0.268 0.183 0.586 0.281 0.912 0.283s0.645-0.093 0.916-0.273l8.845-5.807 8.846 5.807c0.276 0.181 0.603 0.274 0.935 0.267s0.654-0.114 0.923-0.307c0.268-0.193 0.469-0.462 0.578-0.771s0.119-0.644 0.028-0.958l-2.971-10.238 7.369-6.53c0.235-0.209 0.404-0.482 0.484-0.785s0.069-0.622-0.032-0.918c-0.103-0.296-0.29-0.556-0.54-0.748s-0.553-0.308-0.869-0.332l-9.262-0.726-4.008-8.736c-0.128-0.281-0.335-0.52-0.598-0.688s-0.569-0.257-0.882-0.257c-0.313 0-0.619 0.089-0.882 0.257s-0.47 0.406-0.598 0.688l-4.008 8.736-9.261 0.725c-0.311 0.024-0.609 0.136-0.857 0.323s-0.437 0.439-0.543 0.728c-0.106 0.289-0.125 0.602-0.056 0.902s0.226 0.573 0.45 0.787l6.845 6.57zM167.925 12.796c0.29-0.023 0.568-0.121 0.806-0.286s0.426-0.39 0.545-0.651l2.923-6.368 2.923 6.368c0.119 0.261 0.308 0.486 0.545 0.651s0.516 0.264 0.806 0.286l6.453 0.504-5.314 4.709c-0.461 0.409-0.645 1.040-0.476 1.628l2.035 7.014-6.069-3.985c-0.266-0.176-0.58-0.27-0.901-0.27s-0.634 0.094-0.901 0.27l-6.342 4.164 1.706-7.272c0.063-0.267 0.054-0.546-0.024-0.81s-0.225-0.502-0.424-0.694l-4.935-4.738 6.644-0.521z"></path>
</symbol>
<symbol id="icon-ten" viewBox="0 0 45 32">
<path d="M6.514 31.429v-27.794l3.040 3.040h-9.12v-5.646h13.115v30.4h-7.035zM31.974 31.95c-2.49 0-4.719-0.608-6.688-1.824-1.969-1.245-3.518-3.040-4.647-5.385s-1.694-5.182-1.694-8.512c0-3.33 0.565-6.167 1.694-8.512s2.678-4.126 4.647-5.342c1.969-1.245 4.198-1.867 6.688-1.867 2.519 0 4.748 0.622 6.688 1.867 1.969 1.216 3.518 2.997 4.647 5.342s1.694 5.182 1.694 8.512c0 3.33-0.565 6.167-1.694 8.512s-2.678 4.14-4.647 5.385c-1.94 1.216-4.169 1.824-6.688 1.824zM31.974 26c1.187 0 2.215-0.333 3.083-0.999 0.898-0.666 1.592-1.723 2.085-3.17 0.521-1.448 0.782-3.315 0.782-5.602s-0.261-4.155-0.782-5.602c-0.492-1.448-1.187-2.504-2.085-3.17-0.869-0.666-1.896-0.999-3.083-0.999-1.158 0-2.186 0.333-3.083 0.999-0.869 0.666-1.563 1.723-2.085 3.17-0.492 1.448-0.738 3.315-0.738 5.602s0.246 4.155 0.738 5.602c0.521 1.448 1.216 2.504 2.085 3.17 0.898 0.666 1.925 0.999 3.083 0.999z"></path>
</symbol>
<symbol id="icon-five" viewBox="0 0 25 32">
<path d="M11.9 31.949c-2.152 0-4.289-0.28-6.412-0.84-2.093-0.59-3.891-1.415-5.395-2.476l2.83-5.483c1.179 0.855 2.535 1.533 4.068 2.034 1.562 0.501 3.139 0.752 4.731 0.752 1.798 0 3.213-0.354 4.245-1.061s1.548-1.695 1.548-2.963c0-0.796-0.206-1.503-0.619-2.122s-1.15-1.091-2.211-1.415c-1.032-0.324-2.491-0.486-4.378-0.486h-7.915l1.592-17.422h18.881v5.748h-16.317l3.714-3.272-1.105 12.425-3.714-3.272h6.544c3.066 0 5.527 0.427 7.384 1.282 1.887 0.825 3.257 1.96 4.112 3.405s1.282 3.081 1.282 4.908c0 1.828-0.457 3.523-1.371 5.085-0.914 1.533-2.329 2.786-4.245 3.759-1.887 0.943-4.304 1.415-7.252 1.415z"></path>
</symbol>
<symbol id="icon-dollar" viewBox="0 0 21 32">
<path d="M9.593 30.862h2.798l0.024-2.739c5.134-0.391 8.111-3.119 8.123-7.233-0.012-4.043-3.059-6.19-7.281-7.138l-0.7-0.166 0.047-5.929c1.577 0.368 2.538 1.376 2.68 2.87h4.921c-0.059-3.925-2.988-6.735-7.553-7.233l0.024-2.787h-2.798l-0.024 2.763c-4.636 0.451-7.909 3.249-7.885 7.293-0.012 3.581 2.514 5.632 6.617 6.617l1.138 0.285-0.059 6.273c-1.933-0.368-3.237-1.553-3.368-3.534h-4.968c0.119 4.791 3.261 7.47 8.289 7.909l-0.024 2.751zM12.462 23.735l0.047-5.538c1.838 0.581 2.834 1.328 2.846 2.68-0.012 1.435-1.103 2.502-2.893 2.858zM9.759 12.862c-1.482-0.51-2.549-1.281-2.526-2.644 0-1.269 0.901-2.253 2.573-2.597l-0.047 5.241z"></path>
</symbol>
<symbol id="icon-zero" viewBox="0 0 26 32">
<path d="M13.127 31.95c-2.49 0-4.719-0.608-6.688-1.824-1.969-1.245-3.518-3.040-4.647-5.385s-1.694-5.182-1.694-8.512c0-3.33 0.565-6.167 1.694-8.512s2.678-4.126 4.647-5.342c1.969-1.245 4.198-1.867 6.688-1.867 2.519 0 4.748 0.622 6.688 1.867 1.969 1.216 3.518 2.997 4.647 5.342s1.694 5.182 1.694 8.512c0 3.33-0.565 6.167-1.694 8.512s-2.678 4.14-4.647 5.385c-1.94 1.216-4.169 1.824-6.688 1.824zM13.127 26c1.187 0 2.215-0.333 3.083-0.999 0.898-0.666 1.592-1.723 2.085-3.17 0.521-1.448 0.782-3.315 0.782-5.602s-0.261-4.155-0.782-5.602c-0.492-1.448-1.187-2.504-2.085-3.17-0.869-0.666-1.896-0.999-3.083-0.999-1.158 0-2.186 0.333-3.083 0.999-0.869 0.666-1.563 1.723-2.085 3.17-0.492 1.448-0.738 3.315-0.738 5.602s0.246 4.155 0.738 5.602c0.521 1.448 1.216 2.504 2.085 3.17 0.898 0.666 1.925 0.999 3.083 0.999z"></path>
</symbol>
<symbol id="icon-mark" viewBox="0 0 45 32">
<path d="M42.17 0.638c-0.834-0.851-2.188-0.851-3.022 0l-25.606 26.102-9.843-10.033c-0.835-0.851-2.188-0.851-3.023 0s-0.835 2.23 0 3.081l11.354 11.574c0.834 0.851 2.189 0.85 3.023 0l27.117-27.643c0.835-0.851 0.835-2.23 0-3.081z"></path>
</symbol>
<symbol id="icon-timer" viewBox="0 0 26 32">
<path d="M23.664 2.689h1.614c0.302 0 0.538-0.235 0.538-0.538v-1.076c0-0.303-0.235-0.538-0.538-0.538h-24.74c-0.303 0-0.538 0.235-0.538 0.538v1.076c0 0.303 0.235 0.538 0.538 0.538h1.613c0 6.219 2.975 10.723 6.269 12.908-3.294 2.185-6.269 6.689-6.269 12.908h-1.613c-0.303 0-0.538 0.235-0.538 0.538v1.076c0 0.302 0.235 0.538 0.538 0.538h24.74c0.302 0 0.538-0.235 0.538-0.538v-1.076c0-0.302-0.235-0.538-0.538-0.538h-1.614c0-6.219-2.975-10.723-6.269-12.908 3.294-2.185 6.269-6.689 6.269-12.908zM21.513 2.689c0 2.454-0.555 4.622-1.429 6.454h-14.353c-0.874-1.832-1.429-4-1.429-6.454h17.21zM20.555 23.126h-15.294c1.244-3.244 3.479-5.546 5.714-6.454h3.866c2.235 0.908 4.471 3.21 5.714 6.454z"></path>
</symbol>
<symbol id="icon-heart" viewBox="0 0 34 32">
<path d="M17.067 30.172c0.305 0 0.61-0.114 0.838-0.343l11.867-11.428c0.171-0.171 4.362-4 4.362-8.571 0-5.581-3.41-8.914-9.105-8.914-3.333 0-6.457 2.629-7.962 4.114-1.505-1.486-4.629-4.114-7.962-4.114-5.695 0-9.105 3.333-9.105 8.914 0 4.571 4.191 8.4 4.343 8.533l11.886 11.467c0.229 0.229 0.533 0.343 0.838 0.343z"></path>
</symbol>
<symbol id="icon-wave" viewBox="0 0 41 32">
<path d="M21.673 12.898l2.674 1.245 3.98-1.184v-2.775c0-4.714-3.98-8.49-8.735-8.49-4.735 0-8.735 3.755-8.735 8.429v12.653c0 1.163-0.939 2.082-2.082 2.082s-2.082-0.918-2.082-2.082v-5.347h-6.694c0 5.367 0 5.429 0 5.429 0 4.837 3.918 8.755 8.755 8.755 4.796 0 8.755-3.857 8.755-8.633v-12.49c0-1.143 0.939-2.082 2.082-2.082s2.082 0.939 2.082 2.082v2.408zM32.49 17.429v5.612c0 1.143-0.939 2.061-2.082 2.061s-2.082-0.918-2.082-2.061v-5.51l-3.98 1.184-2.674-1.245v5.469c0 4.796 3.939 8.674 8.755 8.674 4.837 0 8.755-3.918 8.755-8.755 0 0 0-0.061 0-5.429h-6.694z"></path>
</symbol>
<symbol id="icon-arrow" viewBox="0 0 21 32">
<path d="M19.042 18.067l-17.21-17.21c-0.202-0.219-0.471-0.319-0.756-0.319-0.134 0-0.286 0.034-0.403 0.084-0.403 0.168-0.672 0.555-0.672 0.992v25.277c0 0.437 0.269 0.824 0.672 0.992 0.118 0.050 0.269 0.084 0.403 0.084 0.286 0 0.555-0.118 0.756-0.319l5.244-5.244 3.21 7.597c0.235 0.538 0.857 0.807 1.412 0.571l2.975-1.261c0.538-0.235 0.807-0.857 0.571-1.412l-3.378-8h6.42c0.437 0 0.824-0.269 0.992-0.672 0.168-0.387 0.084-0.857-0.235-1.16z"></path>
</symbol>
<symbol id="icon-triangle" viewBox="0 0 28 32">
<path d="M26.088 12.891c2.441 1.354 2.441 4.864 0 6.218l-21.155 11.739c-2.37 1.315-5.281-0.399-5.281-3.109v-23.477c0-2.71 2.911-4.424 5.281-3.109l21.155 11.739z"></path>
</symbol>
</defs>
</svg>
